<svg xmlns="http://www.w3.org/2000/svg" enable-background="new 0 0 64 64" viewBox="0 0 64 64"><path d="M47.01 27.6c.06-.07.11-.15.14-.23 1.66-2.64 2.65-5.75 2.72-9.07 0-.03.02-.06.02-.1 0-.02-.01-.04-.01-.06 0-.08.01-.16.01-.24C49.9 8.03 41.87 0 32 0c-9.87 0-17.9 8.03-17.9 17.9 0 .08.01.16.01.24 0 .02-.01.04-.01.06 0 .04.02.07.02.1.07 3.33 1.06 6.44 2.73 9.08.03.06.07.12.11.17 3.19 4.95 8.73 8.24 15.04 8.24C38.29 35.79 43.82 32.52 47.01 27.6zM26.66 2.88c-1.08 1.29-2.01 2.96-2.72 4.92h-4.28C21.48 5.57 23.9 3.87 26.66 2.88zM18.31 9.74h5.02c-.61 2.25-.97 4.78-1.02 7.49h-6.23C16.19 14.5 16.99 11.95 18.31 9.74zM16.11 19.17h6.21c.09 2.48.44 4.81 1.01 6.89h-5.02C17.09 24.01 16.31 21.67 16.11 19.17zM19.66 28h4.28c.72 1.96 1.64 3.63 2.72 4.92C23.9 31.93 21.48 30.22 19.66 28zM31.03 33.71c-1.98-.53-3.76-2.65-5-5.71h5V33.71zM31.03 26.06h-5.66c-.61-2.06-1.01-4.4-1.11-6.89h6.77V26.06zM31.03 17.23h-6.79c.06-2.71.46-5.26 1.12-7.49h5.67V17.23zM31.03 7.8h-5c1.24-3.06 3.02-5.18 5-5.72V7.8zM45.69 26.06h-5.02c.57-2.08.92-4.41 1.01-6.89h6.21C47.69 21.67 46.91 24.01 45.69 26.06zM45.69 9.74c1.32 2.21 2.12 4.76 2.23 7.49H41.7c-.05-2.71-.41-5.24-1.02-7.49H45.69zM44.34 7.8h-4.28c-.72-1.96-1.64-3.63-2.72-4.92C40.1 3.87 42.52 5.57 44.34 7.8zM32.97 2.08c1.98.53 3.76 2.65 5 5.71h-5V2.08zM32.97 9.74h5.66c.66 2.22 1.07 4.78 1.12 7.49h-6.79V9.74zM32.97 19.17h6.77c-.1 2.49-.5 4.83-1.11 6.89h-5.66V19.17zM32.97 33.71V28h4.99C36.73 31.05 34.95 33.17 32.97 33.71zM37.34 32.91c1.08-1.29 2.01-2.95 2.72-4.92h4.28C42.52 30.22 40.1 31.93 37.34 32.91zM59.79 24.68c-1.02-1.02-2.56-1.32-3.9-.76-1.18.49-2 1.63-2.14 2.98L52.48 38.6c-.39.14-.75.36-1.07.66l-11.4 10.47C39.37 50.32 39 51.16 39 52.04v10.99c0 .54.43.97.97.97h10.19c.54 0 .97-.43.97-.97v-4.79c0-.3.11-.59.32-.81L60 48.15c.54-.58.83-1.34.83-2.13l.01-18.83C60.84 26.26 60.46 25.34 59.79 24.68zM58.89 46.02c0 .3-.11.59-.32.81l-8.55 9.28c-.54.58-.83 1.34-.83 2.13v3.82h-8.25V52.04c0-.34.14-.66.39-.89l11.39-10.46c.21-.2.47-.31.74-.34.02 0 .03 0 .05-.01.52-.07 1.05.19 1.32.65.13.22.2.46.2.72 0 .4-.17.79-.48 1.05l-7.2 6.23c-.4.35-.45.96-.1 1.37.35.4.96.45 1.37.1l7.2-6.23c.73-.63 1.15-1.55 1.15-2.52 0-.61-.16-1.19-.48-1.72-.47-.77-1.21-1.3-2.05-1.5l1.23-11.38c.07-.63.45-1.18.96-1.39.75-.31 1.42-.03 1.79.34.3.3.48.72.48 1.14L58.89 46.02zM12.58 39.26c-.32-.29-.68-.51-1.07-.65l-1.26-11.71c-.15-1.35-.97-2.49-2.14-2.98-1.35-.56-2.88-.26-3.9.76-.66.66-1.04 1.58-1.04 2.51l.01 18.83c0 .79.3 1.55.83 2.13l8.55 9.28c.21.22.32.51.32.82v4.79c0 .54.43.97.97.97h10.19c.54 0 .97-.43.97-.97V52.04c0-.88-.37-1.72-1.02-2.31L12.58 39.26zM23.06 62.06h-8.25v-3.82c0-.79-.29-1.55-.83-2.13l-8.55-9.28c-.2-.22-.32-.51-.32-.81L5.1 27.19c0-.42.17-.84.48-1.14.37-.37 1.04-.65 1.79-.34.52.21.89.76.96 1.39l1.23 11.38C8.72 38.69 7.97 39.22 7.5 40c-.31.53-.47 1.1-.47 1.71 0 .97.42 1.89 1.15 2.51l7.2 6.23c.4.35 1.02.31 1.37-.1.35-.4.31-1.02-.1-1.37l-7.2-6.24c-.3-.26-.48-.64-.48-1.04 0-.26.07-.5.2-.71.28-.46.8-.72 1.33-.65.01 0 .03 0 .05.01.27.03.53.14.74.33l11.4 10.47c.25.23.39.55.39.89V62.06z"/></svg>